<?xml version="1.0" encoding="utf-8"?>
<!-- Generator: Adobe Illustrator 18.1.1, SVG Export Plug-In . SVG Version: 6.00 Build 0)  -->
<svg version="1.1" id="图层_1" xmlns="http://www.w3.org/2000/svg" xmlns:xlink="http://www.w3.org/1999/xlink" x="0px" y="0px"
	 viewBox="0 0 332 56" enable-background="new 0 0 332 56" xml:space="preserve">
<g>
	<g>
		<path fill="#9F804B" d="M44.6,28c0-13.5-10.3-24.5-23.1-24.8C32.8,5.8,41.3,15.9,41.3,28c0,12.1-8.5,22.2-19.8,24.8
			C34.3,52.5,44.6,41.5,44.6,28z"/>
		<path fill="#DFAE6A" d="M33.9,0c-4.6,0-9,1.1-12.9,3.1c0,0,0,0,0,0c3.4-1.7,7.2-2.7,11.1-2.7C46.5,0.5,58,12.8,58,28
			S46.5,55.5,32.2,55.5c-4,0-7.8-1-11.1-2.7c0,0,0,0,0,0c3.9,2,8.2,3.1,12.9,3.1c15.5,0,28-12.5,28-28C61.9,12.5,49.4,0,33.9,0z"/>
		<path fill="#966B31" d="M58,28C58,12.8,46.5,0.5,32.2,0.5c-4,0-7.8,1-11.1,2.7c0.1,0,0.3,0.1,0.4,0.1C34.2,3.5,44.6,14.5,44.6,28
			c0,13.5-10.3,24.5-23.1,24.8c-0.1,0-0.3,0.1-0.4,0.1c3.4,1.7,7.2,2.7,11.1,2.7C46.5,55.5,58,43.2,58,28z"/>
		<linearGradient id="SVGID_1_" gradientUnits="userSpaceOnUse" x1="14.6379" y1="9.5639" x2="51.5102" y2="46.4361">
			<stop  offset="0" style="stop-color:#FCE4D1"/>
			<stop  offset="0.5026" style="stop-color:#C79859"/>
		</linearGradient>
		<path fill="url(#SVGID_1_)" d="M58,28C58,12.8,46.5,0.5,32.2,0.5c-4,0-7.8,1-11.1,2.7c0.1,0,0.3,0.1,0.4,0.1
			C34.2,3.5,44.6,14.5,44.6,28c0,13.5-10.3,24.5-23.1,24.8c-0.1,0-0.3,0.1-0.4,0.1c3.4,1.7,7.2,2.7,11.1,2.7
			C46.5,55.5,58,43.2,58,28z"/>
		<path fill="#CD9D58" d="M15.9,41.5c-7.5,0-13.5-6-13.5-13.5c0-7.5,6-13.5,13.5-13.5c7.5,0,13.5,6,13.5,13.5c0,1.5-0.3,3-0.7,4.4
			l1.8,1.8c0.8-1.9,1.2-4,1.2-6.1c0-8.7-7.1-15.8-15.8-15.8C7.2,12.2,0.1,19.3,0.1,28c0,8.7,7.1,15.8,15.8,15.8
			c2.2,0,4.2-0.4,6.1-1.2l-1.8-1.8C18.9,41.2,17.4,41.5,15.9,41.5z"/>
		<path fill="#CD9D58" d="M26.7,39.5c0.2-0.2,0.5-0.5,0.7-0.7L26.7,39.5z"/>
		<path fill="#CD9D58" d="M15.9,14.5c-7.5,0-13.5,6-13.5,13.5c0,7.5,6,13.5,13.5,13.5c1.5,0,3-0.3,4.3-0.7l-8.6-8.6l0,0
			c-0.2-0.2-0.3-0.5-0.3-0.8v-6.7c0-0.7,0.5-1.2,1.2-1.2h6.7c0.3,0,0.6,0.1,0.8,0.3l0,0l8.6,8.6c0.5-1.4,0.7-2.8,0.7-4.4
			C29.4,20.5,23.3,14.5,15.9,14.5z"/>
		<linearGradient id="SVGID_2_" gradientUnits="userSpaceOnUse" x1="6.3389" y1="18.4602" x2="25.4186" y2="37.5398">
			<stop  offset="0" style="stop-color:#FCE4D1"/>
			<stop  offset="0.3545" style="stop-color:#C79859"/>
		</linearGradient>
		<path fill="url(#SVGID_2_)" d="M15.9,14.5c-7.5,0-13.5,6-13.5,13.5c0,7.5,6,13.5,13.5,13.5c1.5,0,3-0.3,4.3-0.7l-8.6-8.6l0,0
			c-0.2-0.2-0.3-0.5-0.3-0.8v-6.7c0-0.7,0.5-1.2,1.2-1.2h6.7c0.3,0,0.6,0.1,0.8,0.3l0,0l8.6,8.6c0.5-1.4,0.7-2.8,0.7-4.4
			C29.4,20.5,23.3,14.5,15.9,14.5z"/>
		<path fill="#CD9D58" d="M30.4,34.1l-1.8-1.8c-1.3,3.9-4.5,7.1-8.4,8.4l1.8,1.8c1.7-0.7,3.3-1.8,4.7-3l0.7-0.7
			C28.6,37.4,29.7,35.9,30.4,34.1z"/>
		
			<linearGradient id="SVGID_3_" gradientUnits="userSpaceOnUse" x1="-58.3602" y1="-46.2289" x2="-71.8363" y2="-59.705" gradientTransform="matrix(0.9161 -8.386644e-002 -8.386644e-002 0.9161 76.6012 76.6012)">
			<stop  offset="0" style="stop-color:#BC9053"/>
			<stop  offset="1" style="stop-color:#897441"/>
		</linearGradient>
		<path fill="url(#SVGID_3_)" d="M30.4,34.1l-1.8-1.8c-1.3,3.9-4.5,7.1-8.4,8.4l1.8,1.8c1.7-0.7,3.3-1.8,4.7-3l0.7-0.7
			C28.6,37.4,29.7,35.9,30.4,34.1z"/>
		<path fill="#CD9D58" d="M20,23.7c0.3,0.2,0.4,0.6,0.4,0.9v6.7c0,0.7-0.5,1.2-1.2,1.2h-6.7c-0.4,0-0.7-0.2-0.9-0.4l0,0l8.6,8.6
			c4-1.3,7.1-4.5,8.4-8.4L20,23.7L20,23.7z"/>
		<linearGradient id="SVGID_4_" gradientUnits="userSpaceOnUse" x1="6.3339" y1="18.4652" x2="25.4136" y2="37.5448">
			<stop  offset="0" style="stop-color:#FCE4D1"/>
			<stop  offset="0.3545" style="stop-color:#C79859"/>
		</linearGradient>
		<path fill="url(#SVGID_4_)" d="M20,23.7c0.3,0.2,0.4,0.6,0.4,0.9v6.7c0,0.7-0.5,1.2-1.2,1.2h-6.7c-0.4,0-0.7-0.2-0.9-0.4l0,0
			l8.6,8.6c4-1.3,7.1-4.5,8.4-8.4L20,23.7L20,23.7z"/>
		
			<linearGradient id="SVGID_5_" gradientUnits="userSpaceOnUse" x1="-58.3602" y1="-46.2289" x2="-71.8363" y2="-59.705" gradientTransform="matrix(0.9161 -8.386644e-002 -8.386644e-002 0.9161 76.6012 76.6012)">
			<stop  offset="0" style="stop-color:#BC9053"/>
			<stop  offset="1" style="stop-color:#897441"/>
		</linearGradient>
		<path fill="url(#SVGID_5_)" d="M20,23.7c0.3,0.2,0.4,0.6,0.4,0.9v6.7c0,0.7-0.5,1.2-1.2,1.2h-6.7c-0.4,0-0.7-0.2-0.9-0.4l0,0
			l8.6,8.6c4-1.3,7.1-4.5,8.4-8.4L20,23.7L20,23.7z"/>
	</g>
	<g>
		<path fill="#FFFFFF" d="M163.6,8.5V4.8c0,0-2.5,0.5-3.3,0.6c-1.8,0.1-5.7,0.4-8.7,0.6c-2.1,0.1-3.7-0.2-3.7-0.2v0.5
			c0,0,0,1.1,0,2.8v15.1c0,1.5-0.5,6.1-0.5,6.1h5.7v-6.1h10.5v-9.9c0-0.8-0.6-1.4-1.4-1.4h-9.1v-4L163.6,8.5z M158.4,15.5v5.8h-5.3
			v-5.8H158.4z"/>
		<path fill="#FFFFFF" d="M182.4,15.5h-2.1v5.8c0,2.2,0.5,8.8,0.5,8.8h-5.2V15.5h-4.7v14.6h-5.7c0,0,0.5-4.6,0.5-6.1V9
			c0-1.7,0-2.8,0-2.8V5.7c0,0,1.8,0.4,4.1,0.2c3.3-0.2,7.2-0.5,9-0.6c0.8-0.1,3.3-0.6,3.3-0.6v3.7l-11.2,0.3v4h10.6
			c0.5,0,1,0.4,1.1,0.9l0.2,1.5C182.8,15.4,182.6,15.5,182.4,15.5z"/>
		<path fill="#FFFFFF" d="M104.6,28.3c-0.1-0.5-0.5-0.9-1.1-0.9h-1.9l0.5-2.6c0,0,0,0,0,0l0.4-1.8h-4c-0.7,0-1.3,0.5-1.5,1.2
			l-0.9,3.3h-5.6v-5.7h13.1c0.2,0,0.4-0.2,0.3-0.4l-0.1-0.5v0l-0.1-0.7l-0.1-0.3c-0.1-0.5-0.5-0.9-1.1-0.9H90.6v-3.4h12.6
			c0.3,0,0.5-0.2,0.4-0.5l-0.3-1.7l2-1.8c0,0-1.2-0.6-2.1-1.4c-1.4-1.2-2.8-2.7-3.5-3.5C99.2,6.3,98.4,5,98.4,5s-1,1.4-1.3,1.5
			c-0.4,0.2-1.8,0.1-1.8,0.1H80.5c0,0-1.3,0-1.7-0.2C78.5,6.4,77.5,5,77.5,5s-0.9,1.3-1.3,1.8c-0.8,0.7-2.2,2.3-3.6,3.5
			c-0.9,0.8-2,1.3-2,1.3l2,1.8l-0.3,1.7c0,0.3,0.2,0.5,0.4,0.5h12.6V19H73.3c-0.5,0-1,0.4-1.1,0.9l-0.1,0.4l-0.1,0.6v0L72,21.3
			c0,0.2,0.1,0.4,0.3,0.4h13.1v5.7h-5.6L78.9,24c-0.2-0.7-0.8-1.2-1.5-1.2h-4l0.4,1.9L74,26l0.3,1.4h-1.9c-0.5,0-1,0.4-1.1,0.9
			l-0.2,1.5c0,0.2,0.1,0.4,0.3,0.4h33.1c0.2,0,0.4-0.2,0.3-0.4L104.6,28.3z M76,12.8l3.2-3.4h17.5l3.2,3.4H76z"/>
		<path fill="#FFFFFF" d="M121.5,9.2v3.5h5.5c0.5,0,1,0.4,1.1,0.9l0.2,1.5c0,0.2-0.1,0.4-0.3,0.4h-6.5v14.6h-5.2V15.5h-6.5
			c-0.2,0-0.4-0.2-0.3-0.4l0.2-1.5c0.1-0.5,0.5-0.9,1.1-0.9h5.5V9.3l-6.4,0.2V6.3c0,0,1.8,0.4,4.2,0.3c3.8-0.2,8.8-0.4,11.2-0.7
			c0.8-0.1,3.1-0.5,3.1-0.5V9L121.5,9.2z"/>
		<path fill="#FFFFFF" d="M130.2,6.8v22.4h13.4V6.8c0,0-2.2,0.5-3,0.5c-1.8,0-5.5,0-7.4,0C132.4,7.2,130.2,6.8,130.2,6.8z
			 M138.8,26.3h-3.9V10h3.9V26.3z"/>
		<path fill="#FFFFFF" d="M114.9,17.2h-3.8c0,0-0.3,4.9-0.5,6.5s-1.2,6.5-1.2,6.5h4.7L114.9,17.2z"/>
		<path fill="#FFFFFF" d="M122.9,17.2h3.8c0,0,0.3,4.9,0.5,6.5s1.2,6.5,1.2,6.5h-4.7L122.9,17.2z"/>
	</g>
	<g>
		<path fill="#FFFFFF" d="M71.9,45.9v0.2c0,1.9,1.1,2.7,2.5,2.7c1.4,0,2.5-1,2.5-2.9v-9.5h1.2v9.7c0,2.7-1.7,3.8-3.7,3.8
			c-2.2,0-3.7-1.2-3.7-3.7v-0.4H71.9z"/>
		<path fill="#FFFFFF" d="M86.1,36.4v13.2h-1.2V36.4H86.1z"/>
		<path fill="#FFFFFF" d="M94.2,36.4l7.9,11.2h0V36.4h1.2v13.2h-1.3l-7.9-11.2l0,0v11.3h-1.2V36.4H94.2z"/>
		<path fill="#FFFFFF" d="M111.3,36.4v5.7h8.1v-5.7h1.2v13.2h-1.2v-6.3h-8.1v6.3h-1.2V36.4H111.3z"/>
		<path fill="#FFFFFF" d="M136.6,36.4v1.1h-7.9v4.7h7.2v1.1h-7.2v5.3h8.1v1.1h-9.3V36.4H136.6z"/>
		<path fill="#FFFFFF" d="M151.8,36.4v1.1h-7.7v4.9h7v1.1h-7v6.1h-1.2V36.4H151.8z"/>
		<path fill="#FFFFFF" d="M161.7,36.4h1.3l5.2,13.2H167l-1.5-3.9h-6.2l-1.5,3.9h-1.2L161.7,36.4z M159.7,44.6h5.3l-2.6-6.7h0
			L159.7,44.6z"/>
		<path fill="#FFFFFF" d="M173.8,36.4l3.7,5.4l3.7-5.4h1.4l-4.4,6.5l4.5,6.7h-1.4l-3.8-5.6l-3.8,5.6h-1.4l4.5-6.7l-4.4-6.5H173.8z"
			/>
	</g>
	<g>
		<path fill="#FFFFFF" d="M221.7,33.4c-0.5,1.2-1.1,2.4-1.7,3.5v10.7h-0.8v-9.5c-0.6,0.9-1.2,1.7-1.9,2.4c-0.1-0.2-0.3-0.5-0.5-0.7
			c1.6-1.6,3.2-4.1,4.2-6.6L221.7,33.4z M231.7,41.9v0.8h-10.4v-0.8h2.7v-4.4h-2.2v-0.8h2.2v-3.4h0.8v3.4h3.6v-3.4h0.8v3.4h2.4v0.8
			h-2.4v4.4H231.7z M225,43.9c-0.8,1.4-1.9,2.8-3,3.7c-0.1-0.1-0.4-0.4-0.6-0.5c1.1-0.9,2.2-2.2,2.9-3.4L225,43.9z M224.7,41.9h3.6
			v-4.4h-3.6V41.9z M228.6,43.8c1.1,1.1,2.4,2.5,2.9,3.5l-0.6,0.4c-0.6-1-1.8-2.5-2.9-3.6L228.6,43.8z"/>
		<path fill="#FFFFFF" d="M236.1,36.1v3.7c0,2.3-0.2,5.7-1.5,8c-0.1-0.1-0.5-0.4-0.6-0.4c1.2-2.2,1.4-5.3,1.4-7.6v-4.4h6.6
			c-0.2-0.6-0.7-1.4-1-2l0.7-0.2c0.4,0.7,0.9,1.5,1.1,2l-0.6,0.2h6.2v0.7H236.1z M248.4,46.1v0.7h-11.9v-0.7h6.6
			c1.5-2.5,2.8-5.8,3.5-8.6l0.8,0.3c-0.8,2.7-2,5.7-3.5,8.3H248.4z M239.3,44.1c-0.3-1.5-1.1-3.8-1.8-5.5l0.7-0.3
			c0.7,1.7,1.5,4,1.8,5.5L239.3,44.1z M242.5,43.3c-0.2-1.5-0.8-3.7-1.3-5.5l0.7-0.2c0.5,1.7,1.2,4,1.4,5.5L242.5,43.3z"/>
		<path fill="#FFFFFF" d="M252.3,35.9c-0.3,0.8-0.7,1.4-1.1,2c-0.1-0.2-0.3-0.5-0.4-0.6c0.8-1,1.3-2.5,1.6-4l0.7,0.2
			c-0.1,0.6-0.3,1.2-0.5,1.8h2.5v0.7H252.3z M255,44.8c0.1,0.2,0.2,0.5,0.3,0.6c-2.3,1.5-2.7,1.8-2.9,2c-0.1-0.2-0.3-0.4-0.5-0.6
			c0.3-0.2,0.8-0.7,0.8-1.4v-3.6h-1.8v-0.7h1.8v-2.5h-1.2v-0.7h3.1v0.7h-1.3v2.5h1.7v0.7h-1.7v3.9L255,44.8z M257.4,45.1
			c0.3,0.1,0.6,0.4,1.1,0.8c0.8,0.5,1.7,0.6,3,0.6c1.1,0,2.8,0,3.9-0.2c-0.1,0.2-0.2,0.6-0.2,0.8c-0.9,0-2.7,0.1-3.7,0.1
			c-1.4,0-2.4-0.2-3.2-0.8c-0.5-0.4-1-0.8-1.3-0.8c-0.4,0-1.1,0.8-1.8,1.7l-0.5-0.7c0.7-0.8,1.4-1.5,2-1.7v-5.5h-1.3v-0.7h2V45.1z
			 M257,36.8c-0.3-0.7-0.9-1.8-1.4-2.6l0.6-0.3c0.6,0.8,1.2,1.9,1.5,2.6L257,36.8z M261.4,42.7h-3.5V42h3.5v-2.5h-1.7
			c-0.6,0-1.1,0.1-1.2,0.2c0-0.2-0.1-0.5-0.3-0.7c0.2-0.1,0.5-0.5,0.7-1.1c0.2-0.3,0.6-1.2,1-2.3h-2v-0.7h2.3
			c0.2-0.6,0.4-1.2,0.5-1.7l0.8,0.2c-0.2,0.5-0.3,1-0.5,1.5h4v0.7h-4.3c-0.4,1.2-0.9,2.3-1.4,3.2h2.1v-2h0.8v2h2.6v0.7h-2.6V42h3
			v0.7h-3v3h-0.8V42.7z"/>
		<path fill="#FFFFFF" d="M275.6,33.4c-0.1,0.2-0.2,0.4-0.4,0.5c1.6,1.9,4.5,3.8,7,4.6c-0.2,0.2-0.4,0.5-0.6,0.7
			c-2.3-0.9-5.2-2.8-6.9-4.7c-1.7,2-4.2,3.8-6.9,4.7c-0.1-0.2-0.3-0.5-0.5-0.7c3-1,6-3.1,7.5-5.4L275.6,33.4z M275.2,46.4h6.6v0.7
			H268v-0.7h6.4V42h-5.7v-0.7h5.7v-2.5h-3.6V38h8.1v0.7h-3.7v2.5h5.9V42h-5.9V46.4z M270.9,42.6c0.6,0.9,1.3,2.2,1.6,3l-0.7,0.3
			c-0.3-0.8-0.9-2.1-1.5-3L270.9,42.6z M277,45.7c0.6-0.8,1.4-2.2,1.8-3.1l0.8,0.3c-0.6,1-1.4,2.3-2,3.1L277,45.7z"/>
		<path fill="#FFFFFF" d="M284.6,33.9h7.3v0.7h-7.3V33.9z M291.7,46.6c0,0.4-0.1,0.6-0.4,0.7c-0.3,0.1-0.8,0.1-1.7,0.1
			c0-0.2-0.1-0.4-0.2-0.6c0.7,0,1.2,0,1.4,0c0.2,0,0.2-0.1,0.2-0.2v-6h-5.5v7h-0.7v-7.7h6.9V46.6z M291.1,38.9h-5.7v-3.1h5.7V38.9z
			 M288.7,43.9v3.4H288v-3.4h-2v-0.6h2.4c0.4-0.7,0.9-1.7,1.2-2.4l0.6,0.3c-0.4,0.7-0.8,1.5-1.2,2.1h1.4v0.6H288.7z M290.4,36.4
			h-4.3v1.8h4.3V36.4z M287,41c0.4,0.6,0.8,1.4,1,2l-0.5,0.2c-0.2-0.5-0.6-1.4-1-2L287,41z M298.4,47.7c-0.1-0.4-0.2-0.8-0.3-1.3
			c-1.9,0.4-4,0.7-5.4,1l-0.2-0.7c0.8-0.1,1.7-0.3,2.8-0.4v-4h-2.5v-5.7h2.5v-3.2h0.7v3.2h2.4v5.7h-2.4V46c0.6-0.1,1.3-0.2,2-0.4
			c-0.3-0.8-0.6-1.6-0.9-2.3l0.6-0.2c0.7,1.4,1.3,3.2,1.5,4.2L298.4,47.7z M293.3,41.4h1.9v-4.3h-1.9V41.4z M297.6,37.1h-1.8v4.3
			h1.8V37.1z"/>
		<path fill="#FFFFFF" d="M315.6,41.8h-6.8v5.8H308v-5.8h-6.7v-0.8h6.7v-6h-5.8v-0.8h12.5V35h-5.9v6h6.8V41.8z M304.1,36
			c0.7,1.2,1.4,2.8,1.7,3.8l-0.7,0.3c-0.3-1-0.9-2.6-1.6-3.9L304.1,36z M310.8,39.9c0.7-1.1,1.5-2.8,2-4l0.8,0.3
			c-0.6,1.3-1.4,3-2.1,4L310.8,39.9z"/>
		<path fill="#FFFFFF" d="M327.6,35.2c1.6,1.4,3.5,3.3,4.3,4.6l-0.7,0.5c-0.3-0.4-0.6-1-1.1-1.5c-9.6,0.6-10.4,0.6-10.9,0.8
			c0-0.2-0.1-0.6-0.2-0.8c0.3-0.1,0.8-0.4,1.3-1c0.6-0.5,2.5-2.6,3.9-4.6l0.8,0.4c-1.4,1.9-3,3.7-4.5,5.1l9.2-0.5
			c-0.8-0.9-1.7-1.8-2.6-2.6L327.6,35.2z M320.3,41.1h9.9v6.5h-0.8v-0.9h-8.3v0.9h-0.8V41.1z M321.1,41.9V46h8.3v-4.1H321.1z"/>
	</g>
	<g>
		<path fill="#FFFFFF" d="M221.2,23c-0.8,1.2-2,2.7-3.2,3.6c-0.1-0.1-0.4-0.4-0.6-0.5c1.1-0.9,2.4-2.2,3-3.4L221.2,23z M231.4,14.8
			v0.8h-13.8v-0.8h6.8c-0.3-0.6-0.7-1.4-1.2-2l0.7-0.2c0.5,0.7,1,1.6,1.3,2.2H231.4z M224.9,21.6v4.5c0,0.6-0.1,0.8-0.6,0.9
			c-0.5,0.1-1.3,0.1-2.8,0.1c0-0.2-0.2-0.5-0.3-0.7c1.3,0,2.3,0,2.6,0c0.3,0,0.4-0.1,0.4-0.3v-4.5h-4.5v-4.5h9.8v4.5H224.9z
			 M220.4,20.9h8.3v-3.1h-8.3V20.9z M228.2,22.7c1.1,1.1,2.5,2.5,3.1,3.5l-0.7,0.5c-0.6-0.9-2-2.4-3.1-3.5L228.2,22.7z"/>
		<path fill="#FFFFFF" d="M240.3,25.8c0,0.5-0.1,0.8-0.5,0.9c-0.4,0.1-1,0.1-2.1,0.1c0-0.2-0.2-0.5-0.3-0.7c0.9,0,1.6,0,1.8,0
			c0.2,0,0.3-0.1,0.3-0.3v-4.2h-3.5c-0.1,1.9-0.5,4-1.6,5.6c-0.1-0.1-0.4-0.3-0.6-0.4c1.4-2.1,1.6-5.2,1.6-7.5v-5.7h4.9V25.8z
			 M239.6,20.9v-3h-3.5v1.4c0,0.5,0,1,0,1.6H239.6z M236.1,14.4v2.9h3.5v-2.9H236.1z M247.5,25.9c0,0.6-0.1,0.8-0.5,1
			c-0.4,0.1-1.2,0.1-2.4,0.1c0-0.2-0.2-0.6-0.3-0.8c1,0,1.9,0,2.2,0c0.3,0,0.4-0.1,0.4-0.4v-4.3h-3.9c-0.2,1.9-0.6,4-1.8,5.6
			c-0.1-0.1-0.4-0.4-0.6-0.4c1.6-2.2,1.8-5.2,1.8-7.5v-5.6h5.3V25.9z M246.8,20.9v-3H243v1.3c0,0.5,0,1.1,0,1.7H246.8z M243,14.4
			v2.9h3.8v-2.9H243z"/>
		<path fill="#FFFFFF" d="M253,16.1c-0.5,0.6-1.1,1.2-1.7,1.7c-0.1-0.2-0.4-0.4-0.6-0.5c1.7-1.4,3-3.2,3.7-4.7l0.8,0.1
			c-0.3,0.5-0.6,1.1-1,1.7h4.3c-0.2-0.5-0.5-1.1-0.9-1.6l0.7-0.2c0.4,0.6,0.8,1.3,1,1.8h4.8v0.7h-5.3v1.3h4.7v0.6h-4.7v1.3h4.8V19
			h-4.8v1.4h5.9V21h-10.9v0.5H253V16.1z M259.2,23.1c1.6,1.3,4,2.5,6.2,3c-0.2,0.2-0.4,0.5-0.5,0.7c-2.2-0.7-4.9-2-6.5-3.5v3.9h-0.8
			v-3.9c-1.6,1.6-4.3,3-6.4,3.7c-0.1-0.2-0.4-0.5-0.5-0.6c2.1-0.6,4.6-1.8,6.1-3.2H251v-0.7h6.7v-1.2h0.8v1.2h6.7v0.7H259.2z
			 M258,15.1h-4.3v1.3h4.3V15.1z M258,17.1h-4.3v1.3h4.3V17.1z M258,19h-4.3v1.4h4.3V19z"/>
		<path fill="#FFFFFF" d="M281.4,13.4v13.8h-0.8v-0.7h-11.5v0.7h-0.8V13.4H281.4z M280.6,25.7V14.2h-11.5v11.6H280.6z M279.4,17.9
			h-2.8v5.7c0,0.5-0.1,0.7-0.5,0.8c-0.4,0.1-1,0.1-2,0.1c0-0.2-0.2-0.5-0.3-0.7c0.8,0,1.5,0,1.7,0c0.2,0,0.3-0.1,0.3-0.3v-4.7
			c-1.4,1.7-3.3,3.3-5.1,4.4c-0.1-0.2-0.3-0.4-0.5-0.5c2-1.1,4.1-2.9,5.4-4.8h-5.3v-0.7h5.5v-2.2h0.8v2.2h2.8V17.9z"/>
		<path fill="#FFFFFF" d="M289.6,18.6c0,0,0,0.3,0,0.4c-0.2,5.3-0.3,7-0.7,7.5c-0.2,0.3-0.4,0.4-0.8,0.4c-0.3,0-0.8,0-1.3,0
			c0-0.2-0.1-0.5-0.2-0.7c0.6,0,1.1,0,1.3,0c0.2,0,0.3,0,0.4-0.2c0.3-0.4,0.5-2,0.6-6.8h-2.1c-0.2,3.2-0.6,6-1.8,7.9
			c-0.1-0.2-0.4-0.4-0.6-0.5c1.6-2.3,1.8-6.5,1.8-10.6h-1.7v-0.7h5.4v0.7h-3c0,0.8,0,1.7-0.1,2.5l2.4,0H289.6z M287.4,15.2
			c-0.2-0.6-0.8-1.6-1.2-2.3l0.6-0.3c0.5,0.7,1,1.6,1.3,2.2L287.4,15.2z M291.5,15.2c-0.4,0.9-1,1.6-1.5,2.3
			c-0.1-0.1-0.4-0.4-0.6-0.5c1.1-1.1,1.9-2.6,2.3-4.4l0.7,0.1c-0.1,0.6-0.4,1.2-0.6,1.7h6.7v0.7H291.5z M298.8,23.2v0.7h-8.6v-0.7
			h1.8v-5.3h-1v-0.7h1v-1.1h0.7v1.1h3.6v-1.1h0.7v1.1h1.3v0.7H297v5.3H298.8z M293.5,24.5c-0.6,1-1.7,2-2.6,2.7
			c-0.1-0.1-0.4-0.4-0.6-0.5c1-0.6,1.9-1.5,2.5-2.4L293.5,24.5z M292.7,17.9v1.3h3.6v-1.3H292.7z M292.7,21.1h3.6v-1.4h-3.6V21.1z
			 M292.7,23.2h3.6v-1.4h-3.6V23.2z M295.8,24.3c0.9,0.7,2.1,1.8,2.6,2.4l-0.5,0.5c-0.5-0.7-1.7-1.8-2.6-2.5L295.8,24.3z"/>
		<path fill="#FFFFFF" d="M308.5,14.6v3l0.1-0.2c2,1,4.5,2.5,5.8,3.4l-0.5,0.7c-1.2-0.9-3.5-2.4-5.5-3.4v8.9h-0.8V14.6h-6.4v-0.8
			h14.1v0.8H308.5z"/>
	</g>
	<line fill="none" stroke="#E2E2E2" stroke-miterlimit="10" x1="202.1" y1="3.2" x2="202.1" y2="49.9"/>
</g>
</svg>
